# xmcd
#
# Track frame offsets: 
#        150
#        15377
#        27767
#        42047
#        56367
#
# Disc length: 941 seconds
#
# Revision: 0
# Processed by: cddbd v1.5.1PL0 Copyright (c) Steve Scherf et al.
# Submitted via: ExactAudioCopy v0.95a5
#
DISCID=2b03ab05
DTITLE=Jill Marie - Somewhere South of Crazy
DYEAR=1998
DGENRE=Country
TTITLE0=Somewhere South of Crazy
TTITLE1=Cry Baby Cry
TTITLE2=He Fits Me Just Right
TTITLE3=Words Written In Water
TTITLE4=Superman
EXTD=
EXTT0=
EXTT1=
EXTT2=
EXTT3=
EXTT4=
PLAYORDER=
